PathFileType	4	(X/Y/Z)	/Users/itak/Documents/Research/Walk-IL/dataset/trc/00037_00004.trc
DataRate	CameraRate	NumFrames	NumMarkers	Units	OrigDataRate	OrigDataStartFrame	OrigNumFrames
100.000000	100.000000	4	53	mm	100.000000	291	778
Frame#	Time	RPSI			LPSI			L3			STRN			T10			C7			CLAV			RBAK			LBAK			LSHO			LUPA			LAEL			LAOL			LWTS			LWPS			LFRA			LIFD			LHPS			LHTS			RSHO			RUPA			RAEL			RAOL			RWTS			RWPS			RFRA			RIFD			RHTS			RHPS			RBHD			LFHD			RFHD			LBHD			RHIP			RASI			LASI			LKNE			LTHI			LANK			LTIP			LTOE			LMT1			LMT5			LHEE			RKNE			RTHI			RANK			RTIP			RTOE			RMT1			RMT5			RHEE			LHIP			
		X1	Y1	Z1	X2	Y2	Z2	X3	Y3	Z3	X4	Y4	Z4	X5	Y5	Z5	X6	Y6	Z6	X7	Y7	Z7	X8	Y8	Z8	X9	Y9	Z9	X10	Y10	Z10	X11	Y11	Z11	X12	Y12	Z12	X13	Y13	Z13	X14	Y14	Z14	X15	Y15	Z15	X16	Y16	Z16	X17	Y17	Z17	X18	Y18	Z18	X19	Y19	Z19	X20	Y20	Z20	X21	Y21	Z21	X22	Y22	Z22	X23	Y23	Z23	X24	Y24	Z24	X25	Y25	Z25	X26	Y26	Z26	X27	Y27	Z27	X28	Y28	Z28	X29	Y29	Z29	X30	Y30	Z30	X31	Y31	Z31	X32	Y32	Z32	X33	Y33	Z33	X34	Y34	Z34	X35	Y35	Z35	X36	Y36	Z36	X37	Y37	Z37	X38	Y38	Z38	X39	Y39	Z39	X40	Y40	Z40	X41	Y41	Z41	X42	Y42	Z42	X43	Y43	Z43	X44	Y44	Z44	X45	Y45	Z45	X46	Y46	Z46	X47	Y47	Z47	X48	Y48	Z48	X49	Y49	Z49	X50	Y50	Z50	X51	Y51	Z51	X52	Y52	Z52	X53	Y53	Z53	

292	2.91	-501.451904296875	1032.951538085938	348.45556640625	-659.1301879882812	1041.89697265625	382.8275146484375	-587.9646606445312	1107.251831054688	373.6116943359375	-587.932861328125	1286.28369140625	136.6630401611328	-592.6535034179688	1250.457763671875	392.0297546386719	-584.9227905273438	1514.634155273438	323.7072143554688	-579.710693359375	1413.442749023438	173.3232421875	-520.144775390625	1374.2412109375	391.6453857421875	-686.5017700195312	1487.109375	341.1833801269531	-749.93505859375	1495.969848632812	234.9878692626953	-854.0591430664062	1393.617309570312	257.5478210449219	-941.2048950195312	1195.840454101562	234.9380035400391	-867.4496459960938	1153.084716796875	296.2109680175781	-937.8718872070312	958.2147216796875	102.3908996582031	-994.83251953125	942.5570068359375	168.6265716552734	-976.0833129882812	1090.346435546875	198.9325103759766	-962.5802001953125	783.8975219726562	36.32595062255859	-1010.079040527344	864.0947875976562	115.6790466308594	-969.861083984375	877.884033203125	58.83549499511719	-409.4610290527344	1476.078979492188	261.9581604003906	-348.6544189453125	1404.900268554688	291.4769897460938	-346.0371704101562	1152.30810546875	379.195556640625	-440.1576538085938	1125.777709960938	362.8392028808594	-351.6578979492188	870.3275756835938	306.6961364746094	-305.6267700195312	872.117431640625	386.8476867675781	-329.8200988769531	1076.855834960938	385.7684631347656	-380.0972900390625	689.5828857421875	328.6402282714844	-338.1173706054688	756.865478515625	303.4383850097656	-302.9453735351562	763.851806640625	370.2194213867188	-615.60888671875	1699.125732421875	192.3506927490234	-412.9981079101562	1652.674926757812	126.6826171875	-489.273681640625	1665.887573242188	65.72898101806641	-500.814453125	1675.91796875	275.7403869628906	-433.953857421875	919.0945434570312	207.1102600097656	-524.90966796875	963.2542114257812	129.7076416015625	-751.7547607421875	990.7001953125	183.1249237060547	-773.8851318359375	507.5347290039062	313.7550964355469	-793.8416137695312	647.9313354492188	324.5655822753906	-757.4658813476562	42.88587188720703	499.8827819824219	-775.5214233398438	288.6781616210938	440.8924865722656	-731.2522583007812	40.46474075317383	272.7619934082031	-706.9237060546875	49.90397644042969	329.2239685058594	-802.0486450195312	35.75663375854492	383.2037963867188	-695.5696411132812	57.83428955078125	560.0540771484375	-496.3497619628906	536.588623046875	19.71946907043457	-440.2304992675781	776.8380737304688	139.0245666503906	-609.9712524414062	47.99542617797852	23.731201171875	-516.4882202148438	408.3489685058594	15.00406074523926	-588.4794311523438	92.70659637451172	-203.4307708740234	-633.7112426757812	87.76543426513672	-150.9022216796875	-547.936279296875	68.05146789550781	-110.2081680297852	-669.1985473632812	46.62417602539062	63.32254028320312	-790.6099853515625	950.2095336914062	315.2010192871094	
293	2.92	-502.4156799316406	1031.0517578125	340.12158203125	-660.1846313476562	1040.516723632812	374.13232421875	-588.9132080078125	1105.58544921875	364.8861694335938	-587.56982421875	1284.216552734375	127.6036224365234	-593.4244995117188	1248.8310546875	383.1251525878906	-585.034912109375	1512.853393554688	314.3238830566406	-579.3635864257812	1411.381225585938	164.0260467529297	-520.7139282226562	1372.4482421875	382.7876892089844	-686.7607421875	1485.482421875	331.3569030761719	-749.614501953125	1494.178100585938	224.8076629638672	-853.844482421875	1391.84130859375	246.4571228027344	-940.9085083007812	1194.241333007812	222.3414764404297	-867.8792724609375	1150.88671875	283.9579467773438	-935.32958984375	958.3162841796875	87.15285491943359	-993.0462646484375	941.6329345703125	152.4663238525391	-975.1416015625	1089.094482421875	184.8092346191406	-958.6362915039062	784.794677734375	18.54585838317871	-1007.450866699219	863.8231201171875	98.26828002929688	-966.5106811523438	878.4741821289062	42.17730331420898	-409.2166748046875	1473.873291015625	253.3701324462891	-348.8008728027344	1402.576171875	283.3743896484375	-347.4614562988281	1150.12646484375	371.6611633300781	-441.5874328613281	1123.906005859375	354.9263916015625	-354.0470581054688	868.0265502929688	299.6796875	-308.1383361816406	869.7903442382812	379.8696594238281	-331.5662536621094	1074.597290039062	378.4257202148438	-383.3252258300781	687.3795776367188	321.8357543945312	-341.0372314453125	754.4678344726562	296.7143859863281	-305.9175415039062	761.4677124023438	363.5333862304688	-614.8856201171875	1697.1259765625	182.4091339111328	-411.9319763183594	1650.358520507812	117.9660263061523	-487.7918090820312	1663.417602539062	56.59373474121094	-500.5838623046875	1673.888793945312	266.5037841796875	-434.9169006347656	916.785888671875	199.1555480957031	-525.5264892578125	960.9192504882812	121.3768005371094	-752.3739624023438	988.96435546875	174.3841247558594	-774.4591064453125	506.4462280273438	309.382080078125	-794.5507202148438	647.0193481445312	318.9347534179688	-757.4931640625	43.46670532226562	499.7733764648438	-775.7824096679688	288.7812805175781	438.7106628417969	-731.2578125	40.45457458496094	272.7682495117188	-706.9495239257812	49.91959762573242	329.2192687988281	-802.0994262695312	35.75326919555664	383.1310729980469	-695.7168579101562	58.94439315795898	559.9424438476562	-497.1072692871094	534.7136840820312	12.97834587097168	-440.866943359375	774.2493896484375	131.7999420166016	-608.7029418945312	46.8309440612793	-3.547919988632202	-516.6112060546875	407.4445190429688	4.48643159866333	-582.3483276367188	99.48853302001953	-228.3898315429688	-628.746337890625	92.73391723632812	-177.1741790771484	-543.9789428710938	71.59336853027344	-135.2698669433594	-668.7647705078125	43.97773361206055	34.67274856567383	-791.4976806640625	948.9243774414062	306.6394348144531	
294	2.93	-503.181884765625	1029.121948242188	331.6140747070312	-660.9872436523438	1039.179565429688	365.3733215332031	-589.6163940429688	1103.938842773438	356.0281372070312	-587.0679321289062	1282.162719726562	118.4068222045898	-593.9954223632812	1247.203491210938	374.0750732421875	-584.9515380859375	1511.06787109375	304.8091125488281	-578.7841796875	1409.319946289062	154.6183013916016	-521.0732421875	1370.632934570312	373.7817077636719	-686.7498168945312	1483.822143554688	321.3982238769531	-749.1287841796875	1492.39697265625	214.5345458984375	-853.4651489257812	1390.0859375	235.3533172607422	-940.3839721679688	1192.609252929688	209.8629302978516	-868.0499877929688	1148.694702148438	271.7975769042969	-932.470458984375	958.294921875	72.29966735839844	-990.9161376953125	940.6450805664062	136.6962432861328	-973.9071044921875	1087.788696289062	170.92236328125	-954.3330078125	785.5307006835938	1.350579500198364	-1004.469299316406	863.4453735351562	81.34589385986328	-962.808837890625	878.9115600585938	26.01466751098633	-408.8063049316406	1471.625366210938	244.6538696289062	-348.7601623535156	1400.223022460938	275.1120300292969	-348.7243041992188	1147.918090820312	363.9655151367188	-442.8651733398438	1122.013305664062	346.8709411621094	-356.3427124023438	865.7442626953125	292.3497314453125	-310.5263977050781	867.4232788085938	372.5706481933594	-333.1686401367188	1072.2939453125	370.8951721191406	-386.4627990722656	685.1888427734375	314.5793151855469	-343.8699645996094	752.0980224609375	289.5866394042969	-308.7874755859375	759.0599365234375	356.4485168457031	-613.9937133789062	1695.148803710938	172.3464965820312	-410.7140808105469	1648.059326171875	109.1251831054688	-486.1427001953125	1660.971801757812	47.33682632446289	-500.170654296875	1671.857788085938	257.1348876953125	-435.7917175292969	914.4468383789062	190.9542541503906	-526.13037109375	958.5762939453125	112.8814239501953	-752.8903198242188	987.3341674804688	165.6069030761719	-775.1280517578125	505.4175109863281	304.8046875	-795.248046875	646.1715698242188	313.1759338378906	-757.573486328125	44.17247009277344	499.6441955566406	-776.125	288.9584045410156	436.3420104980469	-731.2539672851562	40.43872833251953	272.7745971679688	-706.9837036132812	49.94873809814453	329.2105712890625	-802.1602172851562	35.75218963623047	383.03515625	-695.94482421875	60.23416900634766	559.8070678710938	-498.0046997070312	532.8046264648438	6.086106777191162	-441.6091003417969	771.603515625	124.2949600219727	-606.654052734375	46.07011032104492	-29.32743072509766	-516.6427001953125	406.5478820800781	-5.866638660430908	-576.071533203125	106.5693283081055	-251.65185546875	-623.484375	98.00355529785156	-201.6772308349609	-539.65771484375	75.44158935546875	-158.8031463623047	-667.4095458984375	41.71704864501953	7.642970561981201	-792.2337036132812	947.7400512695312	298.1195678710938	
295	2.94	-503.7423400878906	1027.182739257812	322.9367980957031	-661.5272827148438	1037.904296875	356.5580749511719	-590.0671997070312	1102.33984375	347.0485534667969	-586.4249877929688	1280.139038085938	109.067253112793	-594.3704833984375	1245.60205078125	364.8726806640625	-584.658935546875	1509.303100585938	295.1491088867188	-577.9659423828125	1407.279418945312	145.0913543701172	-521.2344360351562	1368.830322265625	364.6179809570312	-686.4845581054688	1482.171875	311.3028869628906	-748.4763793945312	1490.650512695312	204.1568756103516	-852.9249877929688	1388.377197265625	224.2309112548828	-939.6438598632812	1190.968139648438	197.5115814208984	-867.9385375976562	1146.552612304688	259.7523193359375	-929.309326171875	958.162841796875	57.84653854370117	-988.4615478515625	939.6041259765625	121.3354873657227	-972.40283203125	1086.4453125	157.2877960205078	-949.6940307617188	786.1091918945312	-15.24199676513672	-1001.14306640625	862.9656982421875	64.94283294677734	-958.7780151367188	879.2001953125	10.36477661132812	-408.2409057617188	1469.3583984375	235.8016967773438	-348.5316772460938	1397.860961914062	266.6707458496094	-349.8271789550781	1145.706909179688	356.0977172851562	-444.0001525878906	1120.125854492188	338.6571044921875	-358.527587890625	863.4991455078125	284.7028198242188	-312.7956237792969	865.0433959960938	364.9632873535156	-334.6311950683594	1069.972900390625	363.172607421875	-389.4788818359375	683.0380249023438	306.8872985839844	-346.5819396972656	749.7794799804688	282.0589294433594	-311.5437927246094	756.6553955078125	348.9756164550781	-612.9196166992188	1693.212524414062	162.1674499511719	-409.3318176269531	1645.804931640625	100.1643676757812	-484.32470703125	1658.60009765625	37.95907592773438	-499.5740661621094	1669.8408203125	247.6394958496094	-436.572021484375	912.1275634765625	182.4890747070312	-526.7254638671875	956.2694091796875	104.2102355957031	-753.3202514648438	985.8426513671875	156.7906036376953	-775.8820190429688	504.4511108398438	299.9795837402344	-795.9270629882812	645.3905639648438	307.2488708496094	-757.71435546875	45.02884292602539	499.4839782714844	-776.5404052734375	289.2234802246094	433.7658996582031	-731.2413330078125	40.41497421264648	272.7732543945312	-707.0284423828125	49.99689102172852	329.1898193359375	-802.2304077148438	35.75771331787109	382.9085693359375	-696.2427978515625	61.72662734985352	559.63427734375	-498.9823608398438	530.92578125	-1.03065013885498	-442.4439086914062	768.9862670898438	116.4614181518555	-604.0013427734375	45.60419464111328	-53.36256790161133	-516.573974609375	405.6578674316406	-16.07393455505371	-569.8394775390625	113.5906524658203	-273.0918884277344	-618.118408203125	103.2661361694336	-224.2666625976562	-535.1140747070312	79.38413238525391	-180.6330413818359	-665.3125610351562	39.77176666259766	-17.50191307067871	-792.81298828125	946.65283203125	289.6243591308594	
